<?xml version="1.0" encoding="UTF-8" standalone="no"?>
<svg
   width="159.33369mm"
   height="33.687202mm"
   viewBox="0 0 159.3337 33.687202"
   version="1.1"
   id="svg845"
   inkscape:version="1.1 (c4e8f9ed74, 2021-05-24)"
   sodipodi:docname="logo.svg"
   inkscape:export-filename="/home/bartek/inne/ssdmnt/linux_project/media/logo.png"
   inkscape:export-xdpi="300"
   inkscape:export-ydpi="300"
   xmlns:inkscape="http://www.inkscape.org/namespaces/inkscape"
   xmlns:sodipodi="http://sodipodi.sourceforge.net/DTD/sodipodi-0.dtd"
   xmlns="http://www.w3.org/2000/svg"
   xmlns:svg="http://www.w3.org/2000/svg"
   xmlns:rdf="http://www.w3.org/1999/02/22-rdf-syntax-ns#"
   xmlns:cc="http://creativecommons.org/ns#"
   xmlns:dc="http://purl.org/dc/elements/1.1/">
  <defs
     id="defs839" />
  <sodipodi:namedview
     id="base"
     pagecolor="#ffffff"
     bordercolor="#666666"
     borderopacity="1.0"
     inkscape:pageopacity="0.0"
     inkscape:pageshadow="2"
     inkscape:zoom="0.98994949"
     inkscape:cx="358.60415"
     inkscape:cy="60.609153"
     inkscape:document-units="mm"
     inkscape:current-layer="g850"
     inkscape:document-rotation="0"
     showgrid="false"
     inkscape:window-width="1366"
     inkscape:window-height="709"
     inkscape:window-x="0"
     inkscape:window-y="0"
     inkscape:window-maximized="1"
     fit-margin-top="2"
     fit-margin-left="2"
     fit-margin-right="2"
     fit-margin-bottom="2"
     inkscape:pagecheckerboard="0"
     lock-margins="true" />
  <metadata
     id="metadata842">
    <rdf:RDF>
      <cc:Work
         rdf:about="">
        <dc:format>image/svg+xml</dc:format>
        <dc:type
           rdf:resource="http://purl.org/dc/dcmitype/StillImage" />
      </cc:Work>
    </rdf:RDF>
  </metadata>
  <g
     inkscape:label="Warstwa 1"
     inkscape:groupmode="layer"
     id="layer1"
     transform="translate(-22.091878,-57.614687)">
    <g
       id="g850"
       transform="translate(-0.68035671,1.0205352)">
      <text
         xml:space="preserve"
         style="font-style:normal;font-variant:normal;font-weight:bold;font-stretch:normal;font-size:37.5439px;line-height:1.25;font-family:'Open Sans';-inkscape-font-specification:'Open Sans Bold';letter-spacing:-2.09285px;word-spacing:-9.24983px;fill:#f3bf00;fill-opacity:1;stroke:#000000;stroke-width:0.796;stroke-miterlimit:4;stroke-dasharray:none;stroke-opacity:1"
         x="22.237118"
         y="87.516716"
         id="text1410"><tspan
           sodipodi:role="line"
           id="tspan1408"
           x="22.237118"
           y="87.516716"
           style="font-style:normal;font-variant:normal;font-weight:bold;font-stretch:normal;font-family:'Open Sans';-inkscape-font-specification:'Open Sans Bold';fill:#f3bf00;fill-opacity:1;stroke:#000000;stroke-width:0.796;stroke-miterlimit:4;stroke-dasharray:none;stroke-opacity:1">null Linux</tspan></text>
      <path
         style="fill:#ffffff;fill-opacity:1;stroke:#000000;stroke-width:2.14893;paint-order:markers stroke fill"
         d="M 10.714286,78.214286 V 41.428571 h 6.650678 6.65068 l 0.942366,3.75 c 1.867526,7.431523 3.286016,7.9888 7.500646,2.946751 1.86181,-2.227321 4.295801,-4.030404 7.472688,-5.535714 4.462876,-2.114653 5.163846,-2.232465 13.282942,-2.232465 7.503523,0 9.041255,0.212318 12.34245,1.704146 5.32855,2.408002 9.760063,7.551923 11.57875,13.440147 1.332743,4.314921 1.435943,6.620028 1.435943,32.073803 V 115 H 70.048986 61.526542 L 61.298986,89.821429 61.071429,64.642857 58.928571,60.390101 C 56.172369,54.920089 53.150261,53.197242 46.408277,53.252518 38.103836,53.320604 33.452059,56.700521 30.240229,65 c -1.068998,2.762326 -1.281072,6.503544 -1.50825,26.607143 L 28.46763,115 h -8.876672 -8.876672 z"
         id="path18419"
         transform="matrix(0.26458333,0,0,0.26458333,22.772235,56.594152)" />
      <path
         style="fill:#ffffff;fill-opacity:1;stroke:#000000;stroke-width:2.14893;paint-order:markers stroke fill"
         d="M 113.38995,115.65309 C 105.8824,113.8837 100.55808,109.30602 97.676128,102.14286 96.153246,98.357701 96.086963,97.177781 95.860441,69.821429 L 95.625336,41.428571 h 8.973044 8.97305 l 0.004,24.464286 c 0.004,25.860271 0.26982,28.462538 3.31737,32.500751 2.58895,3.430542 5.38005,4.589582 11.0522,4.589582 8.81625,0 13.63815,-3.627779 16.51561,-12.425599 1.31708,-4.02702 1.50114,-6.77068 1.7984,-26.807591 l 0.33115,-22.321429 h 8.49064 8.49063 V 78.214286 115 h -6.45099 c -4.52374,0 -6.5411,-0.26674 -6.75261,-0.89286 -0.16589,-0.49107 -0.82147,-2.74107 -1.45684,-5 -1.43878,-5.1153 -3.01321,-5.41314 -6.58101,-1.24496 -3.11223,3.63594 -7.79311,6.38341 -12.93895,7.59461 -4.51382,1.06243 -11.93957,1.15353 -16.00108,0.1963 z"
         id="path18458"
         transform="matrix(0.26458333,0,0,0.26458333,22.772235,56.594152)" />
      <path
         style="fill:#ffffff;fill-opacity:1;stroke:#000000;stroke-width:2.14893;paint-order:markers stroke fill"
         d="M 181.42857,62.857143 V 10.714286 h 8.92857 8.92857 V 62.857143 115 h -8.92857 -8.92857 z"
         id="path18497"
         transform="matrix(0.26458333,0,0,0.26458333,22.772235,56.594152)" />
      <path
         style="fill:#ffffff;fill-opacity:1;stroke:#000000;stroke-width:2.14893;paint-order:markers stroke fill"
         d="M 217.14286,62.857143 V 10.714286 h 8.57143 8.57142 V 62.857143 115 h -8.57142 -8.57143 z"
         id="path18536"
         transform="matrix(0.26458333,0,0,0.26458333,22.772235,56.594152)" />
    </g>
  </g>
</svg>
